# xmcd
#
# Track frame offsets: 
#        150
#        18875
#        31125
#        42055
#        56020
#        74590
#        90615
#        116237
#        132860
#        152987
#        167025
#        187762
#        200137
#        214805
#
# Disc length: 3122 seconds
#
# Revision: 0
# Processed by: cddbd v1.5PL3 Copyright (c) Steve Scherf et al.
# Submitted via: ExactAudioCopy v0.95a3
#
DISCID=c30c300e
DTITLE=Still Experienced - Still Experienced
DYEAR=1999
DGENRE=Blues
TTITLE0=Hey Joe
TTITLE1=Fire
TTITLE2=Manic Depression
TTITLE3=Purple Haze
TTITLE4=Little Wing
TTITLE5=The Wind Cries Mary
TTITLE6=Voodoo Chile
TTITLE7=Burning Of The Midnight Lamp
TTITLE8=Stone Free
TTITLE9=Foxy Lady
TTITLE10=Red House
TTITLE11=Crosstown Traffic
TTITLE12=Can You See Me
TTITLE13=Angel
EXTD=
EXTT0=
EXTT1=
EXTT2=
EXTT3=
EXTT4=
EXTT5=
EXTT6=
EXTT7=
EXTT8=
EXTT9=
EXTT10=
EXTT11=
EXTT12=
EXTT13=
PLAYORDER=
